<?xml version="1.0" encoding="UTF-8" standalone="no"?>
<!-- Created with Inkscape (http://www.inkscape.org/) -->

<svg
   width="175mm"
   height="140mm"
   viewBox="0 0 175 140"
   version="1.1"
   id="svg1"
   xml:space="preserve"
   inkscape:version="1.4.4 (dcaf3e7, 2026-05-05)"
   sodipodi:docname="drawing.svg"
   xmlns:inkscape="http://www.inkscape.org/namespaces/inkscape"
   xmlns:sodipodi="http://sodipodi.sourceforge.net/DTD/sodipodi-0.dtd"
   xmlns:xlink="http://www.w3.org/1999/xlink"
   xmlns="http://www.w3.org/2000/svg"
   xmlns:svg="http://www.w3.org/2000/svg"><sodipodi:namedview
     id="namedview1"
     pagecolor="#ffffff"
     bordercolor="#000000"
     borderopacity="0.25"
     inkscape:showpageshadow="2"
     inkscape:pageopacity="0.0"
     inkscape:pagecheckerboard="0"
     inkscape:deskcolor="#d1d1d1"
     inkscape:document-units="mm"
     inkscape:zoom="0.71891835"
     inkscape:cx="343.5717"
     inkscape:cy="298.3649"
     inkscape:window-width="1920"
     inkscape:window-height="1009"
     inkscape:window-x="-8"
     inkscape:window-y="-8"
     inkscape:window-maximized="1"
     inkscape:current-layer="layer1" /><defs
     id="defs1"><linearGradient
       id="linearGradient21"
       inkscape:collect="always"><stop
         style="stop-color:#00abff;stop-opacity:1;"
         offset="0.44126076"
         id="stop21" /><stop
         style="stop-color:#006dff;stop-opacity:1;"
         offset="1"
         id="stop22" /></linearGradient><linearGradient
       id="linearGradient19"
       inkscape:collect="always"><stop
         style="stop-color:#00abff;stop-opacity:1;"
         offset="0"
         id="stop19" /><stop
         style="stop-color:#006dff;stop-opacity:1;"
         offset="1"
         id="stop20" /></linearGradient><linearGradient
       id="linearGradient17"
       inkscape:collect="always"><stop
         style="stop-color:#00abff;stop-opacity:1;"
         offset="0"
         id="stop17" /><stop
         style="stop-color:#006dff;stop-opacity:1;"
         offset="1"
         id="stop18" /></linearGradient><linearGradient
       id="linearGradient15"
       inkscape:collect="always"><stop
         style="stop-color:#00abff;stop-opacity:1;"
         offset="0.35243556"
         id="stop15" /><stop
         style="stop-color:#006dff;stop-opacity:1;"
         offset="0.70200568"
         id="stop16" /></linearGradient><linearGradient
       id="linearGradient8"
       inkscape:collect="always"><stop
         style="stop-color:#00abff;stop-opacity:1;"
         offset="0.47564471"
         id="stop8" /><stop
         style="stop-color:#006dff;stop-opacity:1;"
         offset="0.70200574"
         id="stop9" /></linearGradient><inkscape:path-effect
       effect="bspline"
       id="path-effect5"
       is_visible="true"
       lpeversion="1.3"
       weight="33.333333"
       steps="2"
       helper_size="0"
       apply_no_weight="true"
       apply_with_weight="true"
       only_selected="false"
       uniform="false" /><inkscape:path-effect
       effect="bspline"
       id="path-effect4"
       is_visible="true"
       lpeversion="1.3"
       weight="33.333333"
       steps="2"
       helper_size="0"
       apply_no_weight="true"
       apply_with_weight="true"
       only_selected="false"
       uniform="false" /><inkscape:path-effect
       effect="bspline"
       id="path-effect3"
       is_visible="true"
       lpeversion="1.3"
       weight="33.333333"
       steps="2"
       helper_size="0"
       apply_no_weight="true"
       apply_with_weight="true"
       only_selected="false"
       uniform="false" /><inkscape:path-effect
       effect="bspline"
       id="path-effect2"
       is_visible="true"
       lpeversion="1.3"
       weight="33.333333"
       steps="2"
       helper_size="0"
       apply_no_weight="true"
       apply_with_weight="true"
       only_selected="false"
       uniform="false" /><inkscape:path-effect
       effect="bspline"
       id="path-effect1"
       is_visible="true"
       lpeversion="1.3"
       weight="33.333333"
       steps="2"
       helper_size="0"
       apply_no_weight="true"
       apply_with_weight="true"
       only_selected="false"
       uniform="false" /><linearGradient
       inkscape:collect="always"
       xlink:href="#linearGradient8"
       id="linearGradient9"
       x1="113.12521"
       y1="159.55228"
       x2="103.63608"
       y2="51.090992"
       gradientUnits="userSpaceOnUse" /><linearGradient
       inkscape:collect="always"
       xlink:href="#linearGradient15"
       id="linearGradient16"
       x1="79.502197"
       y1="177.81601"
       x2="82.415192"
       y2="94.398811"
       gradientUnits="userSpaceOnUse" /><linearGradient
       inkscape:collect="always"
       xlink:href="#linearGradient17"
       id="linearGradient18"
       x1="100.63691"
       y1="208.05539"
       x2="100.63691"
       y2="68.729713"
       gradientUnits="userSpaceOnUse" /><linearGradient
       inkscape:collect="always"
       xlink:href="#linearGradient19"
       id="linearGradient20"
       x1="139.83977"
       y1="200.11975"
       x2="139.83977"
       y2="112.60596"
       gradientUnits="userSpaceOnUse" /><linearGradient
       inkscape:collect="always"
       xlink:href="#linearGradient21"
       id="linearGradient22"
       x1="58.041245"
       y1="201.25874"
       x2="164.72725"
       y2="201.25874"
       gradientUnits="userSpaceOnUse" /></defs><g
     inkscape:label="Layer 1"
     inkscape:groupmode="layer"
     id="layer1"
     transform="translate(-12.468577,-80.511791)"><path
       style="opacity:1;fill:url(#linearGradient16);stroke-width:0.264999;stroke-dasharray:none"
       d="m 39.317844,143.5316 c -0.429367,-2.08551 0.184015,-4.17101 11.593158,-5.09108 11.409143,-0.92007 33.613162,-0.67472 45.758164,-1.04276 12.145004,-0.36804 14.230464,-1.34944 15.334554,-3.06693 1.10409,-1.7175 1.22676,-4.17098 0.73604,-5.88846 -0.49071,-1.71749 -1.59478,-2.69888 -2.76022,-3.3736 -1.16544,-0.67473 -2.39218,-1.04275 -1.77878,-1.65614 0.61341,-0.61339 3.0669,-1.47211 5.88849,-0.85871 2.82159,0.6134 6.01112,2.69887 7.54458,5.70448 1.53345,3.00562 1.41078,6.93119 -0.42941,10.36616 -1.84018,3.43498 -5.39773,6.37916 -13.49451,8.21931 -8.096781,1.84015 -20.732215,2.5762 -32.325258,2.88289 -11.593042,0.30669 -22.143017,0.18402 -28.154183,-0.92009 -6.011167,-1.10411 -7.483258,-3.18957 -7.912625,-5.27507 z"
       id="path1"
       inkscape:path-effect="#path-effect1"
       inkscape:original-d="m 38.275093,143.5316 c 0.613383,-2.08551 1.226764,-4.17101 1.840148,-6.25651 22.204904,0.24536 44.408923,0.49071 66.613379,0.73606 2.08555,-0.98143 4.17101,-1.96283 6.25651,-2.94424 0.12268,-2.45358 0.24535,-4.90706 0.36803,-7.36059 -1.10411,-0.98144 -2.20818,-1.96283 -3.31227,-2.94424 -1.22679,-0.36804 -2.45353,-0.73606 -3.6803,-1.10409 2.45358,-0.85875 4.90707,-1.71747 7.3606,-2.57621 3.18965,2.08555 6.37918,4.17101 9.56877,6.25651 -0.12268,3.92573 -0.24535,7.8513 -0.36803,11.77695 -3.55769,2.9443 -7.11524,5.88848 -10.67286,8.83271 -12.635941,0.73608 -25.271375,1.47212 -37.907062,2.20818 -10.550398,-0.12268 -21.100373,-0.24535 -31.650559,-0.36803 -1.472147,-2.08554 -2.944238,-4.171 -4.416356,-6.2565 z"
       transform="translate(6.9925651)" /><path
       style="opacity:1;fill:url(#linearGradient18);stroke-width:0.264999;stroke-dasharray:none"
       d="m 30.975834,167.20818 c -0.06134,-1.84015 1.410784,-3.92566 15.33484,-5.27511 13.924055,-1.34944 40.298991,-1.96281 58.209866,-3.92567 17.91087,-1.96285 27.35678,-5.27506 34.28805,-9.99817 6.93127,-4.72311 11.34754,-10.85681 12.75831,-16.80668 1.41076,-5.94988 -0.184,-11.71556 -3.49632,-15.88659 -3.31232,-4.17103 -8.34196,-6.74719 -12.88103,-6.37913 -4.53907,0.36806 -8.58732,3.68027 -10.91818,4.47765 -2.33087,0.79738 -2.94424,-0.92006 -2.26949,-2.82157 0.67474,-1.9015 2.63752,-3.98696 6.01118,-5.33641 3.37365,-1.34945 8.15794,-1.96282 13.92381,-1.1654 5.76587,0.79742 12.51294,3.00555 17.48137,6.74724 4.96844,3.74169 8.15797,9.01668 9.75276,14.7212 1.5948,5.70452 1.5948,11.83823 -0.61342,17.66542 -2.20822,5.8272 -6.62449,11.34753 -11.89965,15.45722 -5.27515,4.1097 -11.40886,6.80853 -19.19892,9.01672 -7.79006,2.2082 -17.23596,3.92563 -31.0986,4.72303 -13.862636,0.79739 -32.141079,0.67472 -44.899516,0.49071 -12.758437,-0.18402 -19.996209,-0.42937 -24.412583,-1.34946 -4.416374,-0.92009 -6.01114,-2.51486 -6.072477,-4.355 z"
       id="path2"
       inkscape:path-effect="#path-effect2"
       inkscape:original-d="m 29.442378,167.45353 c 1.47212,-2.0855 2.944238,-4.17101 4.416359,-6.25651 26.375992,-0.61339 52.750928,-1.22676 79.126393,-1.84014 9.44628,-3.31234 18.89219,-6.62454 28.33829,-9.93681 4.41644,-6.13395 8.83271,-12.26765 13.24907,-18.40148 -1.59483,-5.76592 -3.18959,-11.5316 -4.78439,-17.2974 -5.02984,-2.57626 -10.05948,-5.15242 -15.08922,-7.72863 -4.0484,3.31234 -8.09665,6.62454 -12.14498,9.93681 -0.61339,-1.71751 -1.22676,-3.43495 -1.84015,-5.15242 1.96287,-2.08554 3.92565,-4.171 5.88848,-6.2565 4.78448,-0.6134 9.56877,-1.22677 14.35316,-1.84015 6.74735,2.20822 13.49442,4.41635 20.24163,6.62453 3.18966,5.2752 6.37919,10.55019 9.56878,15.82528 0,6.13395 0,12.26766 0,18.40149 -4.41645,5.52055 -8.83272,11.04089 -13.24907,16.56134 -6.13395,2.69893 -12.26766,5.39777 -18.40149,8.09665 -9.44629,1.71751 -18.89219,3.43494 -28.33829,5.15241 -18.279176,-0.12267 -36.557619,-0.24535 -54.83643,-0.36802 -7.238063,-0.24536 -14.475835,-0.49071 -21.713756,-0.73606 -1.594826,-1.59483 -3.189589,-3.1896 -4.784386,-4.78439 z"
       transform="translate(-6.2565056,1.8401487)" /><path
       style="opacity:1;fill:url(#linearGradient22);fill-opacity:1;stroke-width:0.264999;stroke-dasharray:none"
       d="m 58.271375,187.57249 c -0.858735,2.45353 0.613381,6.62453 5.643207,11.53165 5.029825,4.90713 13.617012,10.55013 24.167325,14.10777 10.550312,3.55764 23.063073,5.02972 33.797363,4.35497 10.73429,-0.67475 19.6895,-3.49625 26.98882,-7.05391 7.29931,-3.55767 12.94232,-7.85126 14.96647,-9.87542 2.02414,-2.02416 0.42938,-1.77881 -3.00562,-0.12265 -3.435,1.65616 -8.70998,4.72301 -15.15058,6.68585 -6.4406,1.96283 -14.04639,2.82155 -22.75652,2.20815 -8.71014,-0.6134 -18.52407,-2.69887 -26.43677,-6.25654 -7.912699,-3.55767 -13.923733,-8.58731 -18.769494,-12.08361 -4.845762,-3.4963 -8.525986,-5.45909 -11.960963,-6.07246 -3.434976,-0.61338 -6.624503,0.12266 -7.483238,2.5762 z"
       id="path3"
       inkscape:path-effect="#path-effect3"
       inkscape:original-d="m 55.94052,185.85501 c 1.472118,4.17101 2.944238,8.34201 4.416356,12.51302 8.587534,5.64323 17.174721,11.28624 25.762082,16.92937 12.513262,1.47214 25.026022,2.94423 37.539032,4.41635 8.95557,-2.82162 17.91078,-5.64312 26.86617,-8.46468 5.64324,-4.29377 11.28625,-8.58736 16.92937,-12.88104 -1.59483,0.24535 -3.18959,0.4907 -4.78439,0.73606 -5.2752,3.06697 -10.55018,6.13383 -15.82528,9.20074 -7.6061,0.85875 -15.21189,1.71747 -22.81784,2.57621 -9.81432,-2.08554 -19.62825,-4.17101 -29.442377,-6.25651 -6.011272,-5.02984 -12.022307,-10.05948 -18.033457,-15.08922 -3.680373,-1.96286 -7.360595,-3.92565 -11.040893,-5.88847 -3.189656,0.73607 -6.379181,1.47212 -9.568773,2.20817 z" /><path
       style="opacity:1;fill:url(#linearGradient20);stroke-width:0.264999;stroke-dasharray:none"
       d="m 96.485128,192.60223 c -1.656135,2.69888 1.901491,5.52045 8.832812,7.11525 6.93133,1.59479 17.23596,1.96281 26.55946,0.30664 9.32351,-1.65617 17.66535,-5.33639 25.27136,-10.12084 7.60602,-4.78444 14.47577,-10.6728 19.1375,-17.23607 4.66174,-6.56327 7.11522,-13.80104 7.29921,-21.77511 0.184,-7.97406 -1.90146,-16.68392 -6.1952,-24.04458 -4.29375,-7.36065 -10.79548,-13.37169 -13.00363,-14.84378 -2.20816,-1.47208 -0.1227,1.59477 1.7788,4.53904 1.90151,2.94426 3.61894,5.76577 4.72304,9.87549 1.1041,4.10972 1.59479,9.50738 0.98139,14.78253 -0.6134,5.27514 -2.33084,10.42745 -4.7844,14.90518 -2.45356,4.47774 -5.64309,8.28064 -10.79558,11.83829 -5.15249,3.55765 -12.26759,6.86985 -19.99629,9.6301 -7.72871,2.76024 -16.07055,4.96838 -23.67657,7.3606 -7.60602,2.39222 -14.475767,4.96837 -16.131902,7.66726 z"
       id="path4"
       inkscape:path-effect="#path-effect4"
       inkscape:original-d="m 91.271375,192.47955 c 3.557619,2.82156 7.115241,5.64313 10.672865,8.46469 10.30503,0.36803 20.60966,0.73605 30.91449,1.10408 8.34218,-3.68037 16.68402,-7.36059 25.02603,-11.04089 6.87002,-5.88859 13.73977,-11.77695 20.60966,-17.66543 2.45358,-7.23806 4.90706,-14.47583 7.36059,-21.71375 -2.08554,-8.71021 -4.171,-17.42007 -6.2565,-26.13011 -6.50199,-6.01127 -13.00372,-12.02231 -19.50557,-18.03346 2.08554,3.06698 4.171,6.13383 6.2565,9.20075 1.71751,2.82161 3.43494,5.64312 5.15242,8.46468 0.49071,5.39788 0.98141,10.79554 1.47212,16.19331 -1.71751,5.15252 -3.43495,10.30483 -5.15242,15.45725 -3.18965,3.80305 -6.37918,7.60595 -9.56877,11.40892 -7.11539,3.31233 -14.23049,6.62453 -21.34573,9.9368 -8.34217,2.20822 -16.68401,4.41636 -25.02602,6.62454 -6.87003,2.57626 -13.739778,5.15241 -20.609665,7.72862 z"
       transform="translate(0.73605944,0.73605948)" /><path
       style="opacity:1;fill:url(#linearGradient9);fill-opacity:1;fill-rule:nonzero;stroke-width:0.264999;stroke-dasharray:none"
       d="m 162.1171,103.23234 c 2.51487,-0.42937 -2.14684,-5.091078 -7.42199,-8.832743 -5.27516,-3.741664 -11.16351,-6.563166 -17.66544,-8.403324 -6.50193,-1.840158 -13.61703,-2.698877 -20.54833,-2.698868 -6.93129,8e-6 -13.67837,0.858728 -19.996271,2.760244 -6.317901,1.901516 -12.206259,4.845695 -18.708189,9.323451 -6.50193,4.477755 -13.61703,10.48879 -18.094744,15.51857 -4.477714,5.02978 -6.317823,9.07802 -5.581731,11.8996 0.736092,2.82158 4.048292,4.41634 8.158007,4.53901 4.109715,0.12266 9.016682,-1.22676 14.35317,-4.60042 5.336489,-3.37366 11.102171,-8.77132 18.03348,-13.49441 6.931308,-4.72309 15.027798,-8.77133 22.817838,-10.856836 7.79004,-2.085502 15.27316,-2.208176 23.86062,-0.367991 8.58745,1.840186 18.27871,5.643087 20.79358,5.213717 z"
       id="path5"
       inkscape:path-effect="#path-effect5"
       inkscape:original-d="m 169.29368,107.46468 c -4.66171,-4.66171 -9.32342,-9.323418 -13.98513,-13.985127 -5.8886,-2.821617 -11.77695,-5.643124 -17.66543,-8.464685 -7.11538,-0.858753 -14.23048,-1.717471 -21.34572,-2.576208 -6.74735,0.858755 -13.49443,1.717474 -20.241639,2.576208 -5.888593,2.944296 -11.776951,5.888476 -17.665427,8.832715 -7.115384,6.011272 -14.230482,12.022307 -21.345726,18.033457 -1.840185,4.04841 -3.680296,8.09665 -5.520444,12.14498 3.312332,1.59483 6.624534,3.18959 9.936803,4.78439 4.90716,-1.34947 9.814126,-2.69889 14.721189,-4.04833 5.765913,-5.39788 11.531597,-10.79554 17.297397,-16.19331 8.096817,-4.04841 16.193307,-8.09665 24.289957,-12.144979 7.48343,-0.122679 14.96655,-0.245353 22.44982,-0.36803 9.69164,3.803049 19.3829,7.605949 29.07435,11.408919 z" /><circle
       style="fill:#1aaeff;fill-opacity:1;stroke-width:0.234498;stroke-dasharray:none"
       id="path6-1"
       cx="46.093948"
       cy="122.27999"
       inkscape:label="path6"
       r="3.5" /><circle
       style="fill:#1aaeff;fill-opacity:1;stroke-width:0.234498;stroke-dasharray:none"
       id="path6-1-1"
       cx="38.956154"
       cy="143.17216"
       inkscape:label="path6"
       r="3.5" /><circle
       style="fill:#1aaeff;fill-opacity:1;stroke-width:0.234498;stroke-dasharray:none"
       id="path6-1-1-2"
       cx="19.104429"
       cy="169.71007"
       inkscape:label="path6"
       r="3.5" /></g></svg>
